<?xml version="1.0" encoding="utf-8"?>
<!-- Generator: Adobe Illustrator 12.0.1, SVG Export Plug-In . SVG Version: 6.00 Build 51448)  -->
<!DOCTYPE svg PUBLIC "-//W3C//DTD SVG 1.1//EN" "http://www.w3.org/Graphics/SVG/1.1/DTD/svg11.dtd" [
	<!ENTITY ns_svg "http://www.w3.org/2000/svg">
	<!ENTITY ns_xlink "http://www.w3.org/1999/xlink">
]>
<svg  version="1.1" id="Layer_1" xmlns="&ns_svg;" xmlns:xlink="&ns_xlink;" width="441.083" height="160.337"
	 viewBox="0 0 441.083 160.337" overflow="visible" enable-background="new 0 0 441.083 160.337" xml:space="preserve">
<g>
	<path fill-rule="evenodd" clip-rule="evenodd" d="M382.08,3.858c2.297-0.697,1.192,2.007,1.439,3.36
		C381.957,7.181,382.495,5.042,382.08,3.858z"/>
	<path fill-rule="evenodd" clip-rule="evenodd" d="M385.919,4.338c0.898,0.854,1.558,3.256-0.48,3.36
		C385.444,6.423,385.258,4.957,385.919,4.338z"/>
	<path fill-rule="evenodd" clip-rule="evenodd" d="M389.279,6.258c0.941-0.232,1.546,2.201,0.48,2.4
		C388.03,9.117,388.909,6.586,389.279,6.258z"/>
	<path fill-rule="evenodd" clip-rule="evenodd" d="M400.319,7.218c1.256,0.505,1.57,1.95,1.44,3.84
		c-0.861-0.061-1.013,0.588-1.92,0.48C400.94,9.978,399.207,8.567,400.319,7.218z"/>
	<path fill-rule="evenodd" clip-rule="evenodd" d="M397.439,8.178c1.227,0.054,0.953,1.607,0.96,2.88
		C396.109,10.994,397.761,9.969,397.439,8.178z"/>
	<path fill-rule="evenodd" clip-rule="evenodd" d="M382.559,8.658c1.768-0.442,0.873,2.532,0.48,2.88
		C381.327,11.13,382.981,10.355,382.559,8.658z"/>
	<path fill-rule="evenodd" clip-rule="evenodd" d="M385.439,9.138c0.48,0,0.96,0,1.44,0c0.063,1.183,0.072,2.312-0.48,2.88
		C385.561,11.576,385.34,10.517,385.439,9.138z"/>
	<path fill-rule="evenodd" clip-rule="evenodd" d="M404.159,9.138c2.071,3.369,0.441,10.439,0.961,15.36
		C403.125,20.342,404.391,12.576,404.159,9.138z"/>
	<path fill-rule="evenodd" clip-rule="evenodd" d="M360,9.618c1.946-0.186,0.528,2.991,0.96,4.32
		C359.013,14.124,360.43,10.946,360,9.618z"/>
	<path fill-rule="evenodd" clip-rule="evenodd" d="M356.639,10.578c1.38,0.587,1.969,3.505,0,3.84
		C356.639,13.138,356.639,11.858,356.639,10.578z"/>
	<path fill-rule="evenodd" clip-rule="evenodd" d="M362.399,10.578c1.456-0.016,1.196,1.684,1.44,2.88
		C362.12,13.737,362.379,12.037,362.399,10.578z"/>
	<path fill-rule="evenodd" clip-rule="evenodd" d="M353.28,14.898c2.27,0.083,0.738,2.928,0.959,4.32
		C352.648,19.049,353.486,16.451,353.28,14.898z"/>
	<path fill-rule="evenodd" clip-rule="evenodd" d="M400.319,15.858c2.814,0.223,1.547,3.867,0,4.8
		C400.319,19.058,400.319,17.458,400.319,15.858z"/>
	<path fill-rule="evenodd" clip-rule="evenodd" d="M360,16.338c1.639-0.175,2.024,2.776,0,2.4
		C359.098,17.822,360.284,17.869,360,16.338z"/>
	<path fill-rule="evenodd" clip-rule="evenodd" d="M356.639,16.818c2.049,0.191,0.458,4.022,0.96,5.76
		C355.55,22.387,357.142,18.555,356.639,16.818z"/>
	<path fill-rule="evenodd" clip-rule="evenodd" d="M350.399,19.218c1.768-0.442,0.873,2.532,0.48,2.88
		C349.296,21.82,350.191,20.285,350.399,19.218z"/>
	<path fill-rule="evenodd" clip-rule="evenodd" d="M353.28,20.658c1.467,0.342,1.95,3.995,0,3.84
		C353.28,23.218,353.28,21.938,353.28,20.658z"/>
	<path fill-rule="evenodd" clip-rule="evenodd" d="M399.359,26.898c1.771,0.629,2.281,2.519,2.88,4.32
		C400.585,30.472,400,28.657,399.359,26.898z"/>
	<path fill-rule="evenodd" clip-rule="evenodd" d="M396.959,27.377c1.38,1.021,2.7,2.1,2.88,4.32
		C398.577,30.561,397.181,29.556,396.959,27.377z"/>
	<path fill-rule="evenodd" clip-rule="evenodd" fill="#FFFFFF" d="M357.12,35.058c0.773,4.646-1.214,7.41,0.479,12
		C354.349,44.831,356.45,38.779,357.12,35.058z"/>
	<path fill-rule="evenodd" clip-rule="evenodd" d="M342.24,40.338c1.956,0.778,1.33,3.047,0.96,4.32
		C341.608,44.489,342.446,41.891,342.24,40.338z"/>
	<path fill-rule="evenodd" clip-rule="evenodd" d="M345.599,40.818c0.32,0,0.64,0,0.96,0c0,1.28,0,2.56,0,3.84
		c-0.32,0-0.64,0-0.96,0C345.599,43.377,345.599,42.098,345.599,40.818z"/>
	<path fill-rule="evenodd" clip-rule="evenodd" fill="#FFFFFF" d="M358.559,42.738c1.823,0.417,0.413,4.067,1.44,5.28
		C358.49,47.288,359.018,44.519,358.559,42.738z"/>
	<path fill-rule="evenodd" clip-rule="evenodd" fill="#FFFFFF" d="M431.04,43.218c0.427,0.212,0.858,0.421,0.96,0.96
		c0.935,8.968,0.479,20.332,0.479,31.2c0,10.526,1.484,21.986-1.92,29.76c0.18-22.163-0.671-37.33,0.48-60.479
		C431.04,44.178,431.04,43.698,431.04,43.218z"/>
	<path fill-rule="evenodd" clip-rule="evenodd" d="M338.399,44.658c2.5,0.673,0.951,4.927,0.96,6.72
		C337.474,50.703,338.792,46.826,338.399,44.658z"/>
	<path fill-rule="evenodd" clip-rule="evenodd" d="M342.719,46.098c1.05,0.071,1.03,1.209,0.96,2.4
		C341.75,48.567,342.41,47.267,342.719,46.098z"/>
	<path fill-rule="evenodd" clip-rule="evenodd" d="M335.519,47.058c1.913,0.93,0.6,3.992,0.48,5.28
		C334.125,51.24,335.792,49.249,335.519,47.058z"/>
	<path fill-rule="evenodd" clip-rule="evenodd" fill="#FFFFFF" d="M433.439,50.417c2.651,6.951,2.253,23.266,2.4,34.08
		c0.059,4.296-0.447,8.613-2.4,11.04C434.068,81.016,433.679,66.229,433.439,50.417z"/>
	<path fill-rule="evenodd" clip-rule="evenodd" d="M342.24,50.897c1.427-0.571,2.062,2.023,0.96,2.4
		C341.586,53.791,342.452,51.805,342.24,50.897z"/>
	<path fill-rule="evenodd" clip-rule="evenodd" d="M331.679,53.778c1.845-0.119,0.917,4.123,0.48,4.8
		C331.065,57.912,331.98,55.237,331.679,53.778z"/>
	<path fill-rule="evenodd" clip-rule="evenodd" fill="#FFFFFF" d="M146.88,54.738c0.775-0.135,0.826,0.454,1.44,0.48
		c-1.007,7.785,0.464,13.692,0,22.56C145.513,72.424,147.466,62.311,146.88,54.738z"/>
	<path fill-rule="evenodd" clip-rule="evenodd" d="M335.519,55.698c1.795-0.391,0.889,2.959,0.48,3.36
		C335.018,58.142,335.037,56.974,335.519,55.698z"/>
	<path fill-rule="evenodd" clip-rule="evenodd" d="M142.08,56.178c0,0.64,0,1.28,0,1.92
		C140.231,58.476,140.231,55.799,142.08,56.178z"/>
	<path fill-rule="evenodd" clip-rule="evenodd" fill="#FFFFFF" d="M149.28,56.178c1.542,8.181,1.626,14.737,0.96,23.04
		C148.711,73.431,149.081,61.005,149.28,56.178z"/>
	<path fill-rule="evenodd" clip-rule="evenodd" d="M244.799,57.138c-0.207,1.073-2.365,0.194-3.359,0.48
		C241.449,56.223,244.152,56.483,244.799,57.138z"/>
	<path fill-rule="evenodd" clip-rule="evenodd" fill="#FFFFFF" d="M124.8,58.098c1.808,0.854,0.197,2.142,0.96,3.84
		c-0.838-0.441-1.06-1.5-0.96-2.88c-0.96,0.766-1.417,3.624-0.48,4.8c0.448-0.352,0.727-0.873,0.96-1.44
		c1.109,1.611,0.168,5.272,0.48,7.68c-0.691-0.109-0.167-1.433-0.96-1.44c-1.4,3.08,0.429,9.389-0.96,12.48
		c-1.362-3.17-0.019-9.256-0.48-14.4c-0.417-1.396-0.719-0.54-1.92-0.48c0.78-1.573-0.108-1.835,0-3.84
		c0.63-0.576,0.755-0.187,1.44,0c0-1.28,0-2.56,0-3.84C124.081,57.965,124.382,58.822,124.8,58.098z"/>
	<path fill-rule="evenodd" clip-rule="evenodd" fill="#FFFFFF" d="M151.68,60.498c1.301,4.855,0.595,7.03,0.96,12.96
		C150.61,69.97,151.938,63.777,151.68,60.498z"/>
	<path fill-rule="evenodd" clip-rule="evenodd" d="M291.36,60.498c2.389,0.636,7.903,0.219,10.56,0.48
		C300.239,62.457,293.847,62.138,291.36,60.498z"/>
	<path fill-rule="evenodd" clip-rule="evenodd" fill="#FFFFFF" d="M204,61.458c-12.669,1.894-32.684,0.999-47.04,0.48
		c-0.088-0.408,0.188-0.453,0.48-0.48C171.436,60.779,186.332,61.807,204,61.458z"/>
	<path fill-rule="evenodd" clip-rule="evenodd" fill="#FFFFFF" d="M323.04,82.578c-49.101,0.29-97.351,5.142-149.76,4.32
		c-4.073-0.064-16.431-0.815-16.32-4.8c0.07-2.533,5.298,2.497,7.2,2.88c6.546,1.316,14.151-0.206,21.12-0.48
		c29.732-1.171,67.979-1.477,95.52-2.4c13.502-0.453,27.532-0.097,41.28-0.96c2.638-2.093,3.135-8.913,1.439-12.48
		c-10.372-4.244-22.697-2.803-34.56-2.88c-29.459-0.191-78.302-0.149-124.32,0.48c4.38-2.46,9.139-1.705,14.4-1.92
		c21.366-0.876,47.858,0.01,74.4,0c14.187-0.005,34.033-0.044,54.239,0c5.694,0.013,13.645-0.3,15.84,1.44
		C327.389,68.846,326.274,79.123,323.04,82.578z"/>
	<path fill-rule="evenodd" clip-rule="evenodd" d="M416.159,65.298c1.914-0.313,1.375,1.825,1.44,3.36
		C416.436,68.22,416.329,66.729,416.159,65.298z"/>
	<path fill-rule="evenodd" clip-rule="evenodd" d="M418.559,66.738c2.225-0.305,1.216,2.624,1.44,4.32
		C418.247,70.89,419.256,67.961,418.559,66.738z"/>
	<path fill-rule="evenodd" clip-rule="evenodd" fill="#FFFFFF" d="M436.319,66.738c1.548,4.961,0.371,10.917,0.48,16.32
		C435.626,79.39,436.541,70.917,436.319,66.738z"/>
	<path fill-rule="evenodd" clip-rule="evenodd" fill="#FFFFFF" d="M145.44,67.218c1.11,1.77,0.167,5.593,0.479,8.16
		C144.267,73.558,144.575,69.068,145.44,67.218z"/>
	<path fill-rule="evenodd" clip-rule="evenodd" fill="#FFFFFF" d="M342.24,67.218c0.991,1.755,0.131,3.083,0,4.8
		C341.297,71.352,341.654,67.944,342.24,67.218z"/>
	<path fill-rule="evenodd" clip-rule="evenodd" fill="#FFFFFF" d="M5.76,68.178c1.049,0.07,1.031,1.209,0.96,2.4
		c-0.996,0.284-1.636,0.924-1.92,1.92C3.64,71.46,5.811,69.695,5.76,68.178z"/>
	<path fill-rule="evenodd" clip-rule="evenodd" fill="#FFFFFF" d="M130.56,68.658c0.878,1.38,0.685,5.789,0,7.2
		C129.642,73.378,130.697,71.699,130.56,68.658z"/>
	<path fill-rule="evenodd" clip-rule="evenodd" d="M417.12,70.098c1.294-0.059,1.714,4.943,0,4.8
		C417.12,73.297,417.12,71.698,417.12,70.098z"/>
	<path fill-rule="evenodd" clip-rule="evenodd" d="M117.12,72.018c-36.453,1.896-67.858,2.02-106.08,2.4
		C41.879,71.84,86.012,72.491,117.12,72.018z"/>
	<path fill-rule="evenodd" clip-rule="evenodd" fill="#FFFFFF" d="M3.84,72.978c1.13,0.701-0.023,3.139-0.48,3.84
		C1.652,77.073,3.267,73.518,3.84,72.978z"/>
	<path fill-rule="evenodd" clip-rule="evenodd" fill="#FFFFFF" d="M132.479,72.978c0.664,0.234,1.165,4.327-0.48,3.84
		C131.79,75.167,132.189,74.127,132.479,72.978z"/>
	<path fill-rule="evenodd" clip-rule="evenodd" d="M419.519,73.458c1.09,0.511,0.183,3.018,0.48,4.32
		C417.375,77.819,419.209,74.678,419.519,73.458z"/>
	<path fill-rule="evenodd" clip-rule="evenodd" fill="#FFFFFF" d="M251.519,74.897c-16.196,1.018-22.669,0.753-38.879,0.96
		C223.996,73.812,242.73,75.252,251.519,74.897z"/>
	<path fill-rule="evenodd" clip-rule="evenodd" fill="#FFFFFF" d="M261.599,74.417c-0.616,1.896-8.821,0.946-8.64,0.48
		C254.98,73.878,258.807,74.665,261.599,74.417z"/>
	<path fill-rule="evenodd" clip-rule="evenodd" fill="#FFFFFF" d="M263.04,74.897c1.136-1.104,4.308-0.172,6.24-0.48
		C269.031,76.287,264.085,75.349,263.04,74.897z"/>
	<path fill-rule="evenodd" clip-rule="evenodd" fill="#FFFFFF" d="M275.04,75.377c-0.854-0.896-1.22,0.39-2.88,0
		C271.871,74.28,275.482,73.633,275.04,75.377z"/>
	<path fill-rule="evenodd" clip-rule="evenodd" fill="#FFFFFF" d="M341.28,74.417c1.893-0.293,0.564,2.636,0.96,3.84
		C341.48,77.417,341.596,75.7,341.28,74.417z"/>
	<path fill-rule="evenodd" clip-rule="evenodd" fill="#FFFFFF" d="M211.68,74.897c-14.326,2.262-27.506,0.753-42.72,1.44
		C186.123,73.849,200.329,76.177,211.68,74.897z"/>
	<path fill-rule="evenodd" clip-rule="evenodd" fill="#FFFFFF" d="M144.959,75.857c1.988-0.068,0.5,3.34,0.96,4.8
		C145.192,79.465,144.993,77.744,144.959,75.857z"/>
	<path fill-rule="evenodd" clip-rule="evenodd" fill="#FFFFFF" d="M184.8,77.778c-0.207,1.073-2.366,0.194-3.36,0.48
		C181.832,77.246,183.97,76.941,184.8,77.778z"/>
	<path fill-rule="evenodd" clip-rule="evenodd" fill="#FFFFFF" d="M168.959,78.258c3.045-1.116,8.157-0.164,12-0.48
		C177.915,78.893,172.803,77.941,168.959,78.258z"/>
	<path fill-rule="evenodd" clip-rule="evenodd" fill="#FFFFFF" d="M170.4,80.658c47.808-2.072,87.171-2.219,133.439-2.88
		c7.016-0.307,7.173,0.735,0.48,0.48C261.32,79.529,211.495,80.707,170.4,80.658z"/>
	<path fill-rule="evenodd" clip-rule="evenodd" fill="#FFFFFF" d="M328.319,78.258c1.117,4.003,0.163,10.078,0.48,14.879
		C325.192,90.538,326.508,82.173,328.319,78.258z"/>
	<path fill-rule="evenodd" clip-rule="evenodd" fill="#FFFFFF" d="M115.68,80.178c-5.874,0.211-15.254,3.104-20.64,0.96
		c1.579,0.628,6.521-0.41,8.64-0.48C107.433,80.533,110.861,79.807,115.68,80.178z"/>
	<path fill-rule="evenodd" clip-rule="evenodd" fill="#FFFFFF" d="M251.04,81.138C244.039,82.706,247.75,80.016,251.04,81.138
		L251.04,81.138z"/>
	<path fill-rule="evenodd" clip-rule="evenodd" fill="#FFFFFF" d="M262.08,80.658c-1.131,1.448-3.178,0.378-6.72,0.96
		C256.035,79.732,259.912,81.05,262.08,80.658z"/>
	<path fill-rule="evenodd" clip-rule="evenodd" fill="#FFFFFF" d="M265.919,81.138c0.207-1.073,2.365-0.194,3.36-0.48
		C268.64,81.916,267.149,81.574,265.919,81.138z"/>
	<path fill-rule="evenodd" clip-rule="evenodd" fill="#FFFFFF" d="M34.08,82.098c-2.4,0-4.8,0-7.2,0
		C28.002,81.301,33.255,80.05,34.08,82.098z"/>
	<path fill-rule="evenodd" clip-rule="evenodd" fill="#FFFFFF" d="M37.44,81.618c0.207-1.073,2.366-0.194,3.36-0.48
		C40.13,81.872,38.315,82.501,37.44,81.618z"/>
	<path fill-rule="evenodd" clip-rule="evenodd" fill="#FFFFFF" d="M47.04,81.618c1.136-1.104,4.308-0.172,6.24-0.48
		c2.08,0,4.16,0,6.24,0C56.315,82.253,51.043,81.301,47.04,81.618z"/>
	<path fill-rule="evenodd" clip-rule="evenodd" fill="#FFFFFF" d="M245.28,81.138c-23.406,2.061-52.957,1.865-74.4,1.92
		C196.299,81.145,218.727,81.475,245.28,81.138z"/>
	<path fill-rule="evenodd" clip-rule="evenodd" fill="#FFFFFF" d="M324.479,83.538c1.387,0.395,1.765,4.288,0.96,5.28
		C323.51,88.405,322.93,84.646,324.479,83.538z"/>
	<path fill-rule="evenodd" clip-rule="evenodd" fill="#FFFFFF" d="M117.6,84.498c-14.417,1.43-28.859,2.03-40.8,0.48
		C93.293,85,103.346,84.853,117.6,84.498z"/>
	<path fill-rule="evenodd" clip-rule="evenodd" fill="#FFFFFF" d="M120.48,84.498c0.493,1.613-1.493,0.747-2.4,0.96
		C117.587,83.845,119.573,84.71,120.48,84.498z"/>
	<path fill-rule="evenodd" clip-rule="evenodd" fill="#FFFFFF" d="M421.439,84.498c0.559-0.078,0.854,0.106,0.96,0.48
		c0.493,7.937-0.717,14.21-0.479,22.079c0.166,5.514,2.773,13.958-1.92,16.801C421.599,109.689,417.688,94.653,421.439,84.498z"/>
	<path fill-rule="evenodd" clip-rule="evenodd" fill="#FFFFFF" d="M76.32,85.458c-18.189,0.904-28.134,1.217-43.68,0.48
		C49.793,85.007,62.807,84.825,76.32,85.458z"/>
	<path fill-rule="evenodd" clip-rule="evenodd" fill="#FFFFFF" d="M27.84,85.458c-1.202,1.998-5.908,0.491-8.64,0.96
		C21.082,84.06,25.312,86.632,27.84,85.458z"/>
	<path fill-rule="evenodd" clip-rule="evenodd" fill="#FFFFFF" d="M31.68,85.458c0.493,1.613-1.493,0.747-2.4,0.96
		C28.787,84.805,30.773,85.67,31.68,85.458z"/>
	<path fill-rule="evenodd" clip-rule="evenodd" d="M350.399,89.297c-1.194-0.726-2.194-1.646-2.399-3.359
		C349.618,86.24,350.208,87.568,350.399,89.297z"/>
	<path fill-rule="evenodd" clip-rule="evenodd" fill="#FFFFFF" d="M136.32,87.858c1.203,1.196,0.908,3.892,1.44,5.76
		C135.216,93.761,136.73,89.847,136.32,87.858z"/>
	<path fill-rule="evenodd" clip-rule="evenodd" fill="#FFFFFF" d="M93.6,88.337c3.103,0.824,0.96,5.978,0.96,7.68
		c0,20.914,1.496,41.832,0,60c-3.018-1.096-1.452-5.629-1.44-8.64c0.073-18.157-1.042-42.085-0.48-57.6c0-0.48,0-0.96,0-1.44
		C92.96,88.337,93.28,88.337,93.6,88.337z"/>
	<path fill-rule="evenodd" clip-rule="evenodd" fill="#FFFFFF" d="M96,88.337c0.48,0,0.96,0,1.44,0
		c2.005,17.569,0.442,43.788,1.44,59.521c0.169,2.673,0.973,6.87-0.96,8.159c-2.328-0.042-1.403-3.575-1.44-4.8
		c-0.589-19.406-0.018-42.995,0-61.439C95.917,89.7,96.075,88.903,96,88.337z"/>
	<path fill-rule="evenodd" clip-rule="evenodd" fill="#FFFFFF" d="M99.36,88.337c0.32,0,0.64,0,0.96,0
		c2.056,2.319,0.935,6.146,0.96,9.12c0.152,17.673,0.9,36.059,0,58.56c-1.761-1.879-1.483-4.449-1.44-8.159
		c0.219-18.691-0.277-40.502-0.48-58.08C99.36,89.297,99.36,88.818,99.36,88.337z"/>
	<path fill-rule="evenodd" clip-rule="evenodd" fill="#FFFFFF" d="M105.6,88.818c1.77-1.11,5.593-0.168,8.16-0.48
		C111.99,89.448,108.167,88.504,105.6,88.818z"/>
	<path fill-rule="evenodd" clip-rule="evenodd" fill="#FFFFFF" d="M59.52,88.818c0.775-0.136,0.826,0.453,1.44,0.479
		c0.067,3.658-0.593,4.099-0.48,8.16C59.008,95.938,58.616,91.154,59.52,88.818z"/>
	<path fill-rule="evenodd" clip-rule="evenodd" fill="#FFFFFF" d="M14.88,89.297c-0.563,2.74-3.369,0.494-5.76,0.96
		C10.306,88.586,12.053,89.774,14.88,89.297z"/>
	<path fill-rule="evenodd" clip-rule="evenodd" fill="#FFFFFF" d="M27.36,89.297c-1.731,1.399-9.79,1.248-11.52,0.48
		C18.78,88.717,23.636,89.574,27.36,89.297z"/>
	<path fill-rule="evenodd" clip-rule="evenodd" fill="#FFFFFF" d="M123.36,89.778c1.729,0.349,0.312,1.496,0.96,3.359
		C122.495,93.522,123.709,90.868,123.36,89.778z"/>
	<path fill-rule="evenodd" clip-rule="evenodd" fill="#FFFFFF" d="M145.44,90.738c0.129-0.359,2.469,6.412-0.48,6.24
		C144.68,94.458,145.806,93.343,145.44,90.738z"/>
	<path fill-rule="evenodd" clip-rule="evenodd" fill="#FFFFFF" d="M138.72,90.738c1.229,0.53,0.942,2.577,0.96,4.319
		C137.045,94.359,139.084,93.115,138.72,90.738z"/>
	<path fill-rule="evenodd" clip-rule="evenodd" fill="#FFFFFF" d="M150.24,91.217c1.163,1.42,0.722,3.167,0,4.8
		C148.906,94.96,150.307,92.597,150.24,91.217z"/>
	<path fill-rule="evenodd" clip-rule="evenodd" fill="#FFFFFF" d="M417.599,91.217c1.537,4.335,0.921,20.271,1.44,29.761
		c0.221,4.036,0.937,6.512-2.881,7.199c2.33-9.331-2.107-23.771-0.479-33.12C415.937,93.579,417.503,92.542,417.599,91.217z"/>
	<path fill-rule="evenodd" clip-rule="evenodd" fill="#FFFFFF" d="M143.04,91.698c1.673,0.247,0.704,3.136,0.96,4.8
		C141.267,96.43,143.761,93.948,143.04,91.698z"/>
	<path fill-rule="evenodd" clip-rule="evenodd" fill="#FFFFFF" d="M147.84,91.698c1.112,1.471,1,2.89,0.48,4.319
		C147.356,94.589,147.636,93.347,147.84,91.698z"/>
	<path fill-rule="evenodd" clip-rule="evenodd" fill="#FFFFFF" d="M141.12,92.177c1.375,0.065-0.415,3.295,0.96,3.36
		C140.478,97.247,140.327,93.16,141.12,92.177z"/>
	<path fill-rule="evenodd" clip-rule="evenodd" fill="#FFFFFF" d="M414.239,95.057c0.559-0.077,0.854,0.106,0.961,0.48
		c0.181,4.656-0.883,9.756-0.961,15.84c-0.086,6.753,3.345,15.395-0.96,20.64c-0.799-12.855,0.21-21.352-0.96-35.039
		C413.316,96.694,413.956,96.054,414.239,95.057z"/>
	<path fill-rule="evenodd" clip-rule="evenodd" fill="#FFFFFF" d="M410.399,98.417c0.559-0.078,0.854,0.106,0.96,0.48
		c0.675,5.358-0.534,10.915-0.479,16.319c0.074,7.446,3.24,15.397-1.44,19.2c-0.747-13.439,0.533-25.353-0.479-35.04
		C409.78,99.399,410.203,99.021,410.399,98.417z"/>
	<path fill-rule="evenodd" clip-rule="evenodd" fill="#FFFFFF" d="M360,108.978c0.966,1.434,1.003,3.796,1.439,5.76
		C360.207,113.571,360.168,111.208,360,108.978z"/>
	<path fill-rule="evenodd" clip-rule="evenodd" d="M39.36,111.858c1.768-0.442,0.873,2.531,0.48,2.88
		C38.78,114.677,39.636,112.702,39.36,111.858z"/>
	<path fill-rule="evenodd" clip-rule="evenodd" d="M42.24,112.818c1.515-0.618,1.515,3.978,0,3.359
		C42.24,115.057,42.24,113.938,42.24,112.818z"/>
	<path fill-rule="evenodd" clip-rule="evenodd" d="M401.759,113.297c1.104,1.292-0.248,4.212-1.92,4.32
		C400.131,115.83,400.856,114.474,401.759,113.297z"/>
	<path fill-rule="evenodd" clip-rule="evenodd" d="M403.679,113.297c1.512,2.014-1.001,4.103-1.44,5.76
		C400.987,117.303,403.814,115.529,403.679,113.297z"/>
	<path fill-rule="evenodd" clip-rule="evenodd" d="M45.6,114.257c1.353,0.144,1.698,5.683,0,5.76
		C45.6,118.097,45.6,116.177,45.6,114.257z"/>
	<path fill-rule="evenodd" clip-rule="evenodd" d="M48.96,114.738c1.823,2.087,1.007,9.136,0.48,12
		C48.773,122.442,47.996,118.847,48.96,114.738z"/>
	<path fill-rule="evenodd" clip-rule="evenodd" d="M51.84,116.177c1.2,2.044,2.146,10.786,0,11.521
		C51.84,123.858,51.84,120.017,51.84,116.177z"/>
	<path fill-rule="evenodd" clip-rule="evenodd" d="M54.72,116.658c0.48,0,0.96,0,1.44,0c-0.386,6.319,1.672,11.048-0.96,15.359
		C54.949,126.989,55.745,120.912,54.72,116.658z"/>
	<path fill-rule="evenodd" clip-rule="evenodd" fill="#FFFFFF" d="M407.04,117.137c0.558-0.078,0.854,0.106,0.96,0.48
		c-0.829,6.713,1.911,15.577-1.44,19.2C405.841,129.89,404.981,123.369,407.04,117.137z"/>
	<path fill-rule="evenodd" clip-rule="evenodd" d="M58.08,119.057c2.265,3.874,0.988,9.864,1.44,15.841
		C56.427,132.23,58.85,124.047,58.08,119.057z"/>
	<path fill-rule="evenodd" clip-rule="evenodd" fill="#FFFFFF" d="M357.12,119.538c5.809,3.73,0.763,11.475,3.359,18.72
		C354.165,136.04,360.129,124.292,357.12,119.538z"/>
	<path fill-rule="evenodd" clip-rule="evenodd" d="M61.92,122.417c2.157,3.603,0.38,11.14,0.96,16.32
		C59.985,136.153,61.667,126.564,61.92,122.417z"/>
	<path fill-rule="evenodd" clip-rule="evenodd" fill="#FFFFFF" d="M360.959,125.297c5.055,1.327,1.52,8.941,2.88,14.4
		C358.206,138.621,363.19,130.695,360.959,125.297z"/>
	<path fill-rule="evenodd" clip-rule="evenodd" d="M64.8,125.778c3.134,1.985,0.642,9.598,1.44,13.92
		C63.106,137.711,65.598,130.1,64.8,125.778z"/>
	<path fill-rule="evenodd" clip-rule="evenodd" fill="#FFFFFF" d="M364.799,128.177c1.055,0.545,1.595,1.605,2.88,1.92
		c-1.376,2.624,0.431,8.432-0.96,11.04C362.578,139.813,365.973,131.29,364.799,128.177z"/>
	<path fill-rule="evenodd" clip-rule="evenodd" fill="#FFFFFF" d="M368.639,130.578c0.98,0.459,1.899,0.98,2.88,1.439
		c-0.646,3.779-0.05,6.02,0,10.08C366.442,142.375,369.448,134.569,368.639,130.578z"/>
	<path fill-rule="evenodd" clip-rule="evenodd" fill="#FFFFFF" d="M372,132.977c0.694-1.123,2.856,0.306,3.84,0.48
		c-0.736,3.007-0.794,7.416,0.479,9.12c1.058-2.191,0.424-6.812,0-9.12c0.558,0.403,1.287,0.633,2.4,0.479
		c-0.098,2.695,0.58,6.644,0,9.601c-2.57-0.509-4.554-0.616-6.24-0.96C372.165,139.532,373.112,135.225,372,132.977z"/>
	<path fill-rule="evenodd" clip-rule="evenodd" d="M36.48,133.937c1.41,0.515,2.124,4.854,0,4.801
		C36.48,137.137,36.48,135.538,36.48,133.937z"/>
	<path fill-rule="evenodd" clip-rule="evenodd" fill="#FFFFFF" d="M379.679,133.937c0.96,0,1.92,0,2.88,0
		c-0.314,3.046,0.633,7.354-0.479,9.601c-0.32,0-0.641,0-0.96,0C378.766,142.21,381.201,136.096,379.679,133.937z"/>
	<path fill-rule="evenodd" clip-rule="evenodd" d="M39.36,135.858c1.603,0.248,1.09,4.318,0.48,5.279
		C39.217,139.909,38.847,136.72,39.36,135.858z"/>
	<path fill-rule="evenodd" clip-rule="evenodd" d="M42.72,135.858c1.47,1.673,1.231,7.269,0.48,9.6
		C42.264,143.25,42.777,137.38,42.72,135.858z"/>
	<path fill-rule="evenodd" clip-rule="evenodd" d="M81.6,139.217c1.906,4.248,0.838,11.485,0.48,15.84
		C80.457,151.498,80.426,144.966,81.6,139.217z"/>
	<path fill-rule="evenodd" clip-rule="evenodd" fill="#FFFFFF" d="M396,24.018c-5.62-8.856-27.325-7.647-33.12,1.92
		c11.278-19.015,50.305-5.659,42.72,20.64c-2.183,0.697-4.071,1.688-6.24,2.4c4.091-11.163-2.78-24.595-14.399-26.4
		c-15.345-2.384-26.607,10.989-21.601,26.88c-4.553-6.455-2.174-14.889,1.44-20.16c6.264-9.135,20.979-10.479,30.24-3.36
		c-6.898-10.415-31.773-5.197-34.08,7.2C362.782,20.244,385.642,13.821,396,24.018z M402.239,31.218
		c-0.599-1.801-1.109-3.691-2.88-4.32C400,28.657,400.585,30.472,402.239,31.218z M399.839,31.698c-0.18-2.221-1.5-3.3-2.88-4.32
		C397.181,29.556,398.577,30.561,399.839,31.698z"/>
	<path fill-rule="evenodd" clip-rule="evenodd" fill="#FFFFFF" d="M360.959,27.377c1.026,0.232-2.136,4.144-2.4,6.24
		C357.297,31.38,360.017,29.007,360.959,27.377z"/>
	<path fill-rule="evenodd" clip-rule="evenodd" fill="#FFFFFF" d="M403.679,49.938c7.261,2.34,10.834,8.367,14.4,14.4
		c0.005-3.21-2.976-7.58-5.28-10.08c13.496,8.375,9.539,38.154-5.76,43.2c-2.497-0.224-4.021-1.419-6.24-1.92
		c6.345-3.927,14.329-9.831,15.359-19.68c0.819-7.821-2.255-13.935-6.72-18.72c2.958-0.551,4.073,4.881,6.24,6.72
		C414.163,56.734,408.633,53.624,403.679,49.938z M417.599,68.658c-0.065-1.535,0.474-3.673-1.44-3.36
		C416.329,66.729,416.436,68.22,417.599,68.658z M420,71.058c-0.225-1.696,0.784-4.625-1.44-4.32
		C419.256,67.961,418.247,70.89,420,71.058z M417.12,74.897c1.714,0.144,1.294-4.859,0-4.8
		C417.12,71.698,417.12,73.297,417.12,74.897z M420,77.778c-0.298-1.303,0.609-3.81-0.48-4.32
		C419.209,74.678,417.375,77.819,420,77.778z"/>
	<path fill-rule="evenodd" clip-rule="evenodd" d="M132.479,90.738c-2.651,2.657-7.863,4.123-11.04,4.8
		c-2.162-0.455-0.102-4.683-0.96-5.28c-6.448-0.113-8.516,0.511-15.36,0.48c-0.722,18.828,1.099,49.415-0.48,69.12
		c-27.88-0.128-47.713,0.341-72.48,0.479c-0.732-17.731-0.549-52.288-0.48-69.12c-7.359,1.441-18.422-0.822-24.96,1.44
		c-1.943-5.097-4.35-9.73-6.72-14.4c2.131-5.869,5.174-10.826,7.2-16.8c29.625-0.86,62.841-0.107,83.52-0.48
		c6.603-0.119,18.77-0.954,28.32-0.48c2.212,0.292-0.284-4.125,2.4-3.36c3.302-1.228,6.683,0.771,8.64,2.4
		c4.945-3.349,11.525-8.602,19.68-6.24c3,0.869,4.661,3.398,7.2,5.28c41.897,0.649,77.877-1.133,117.12-0.48
		c13.435,0.224,27.982,2.001,40.319,0c17.457-2.832,17.538-24.993,26.4-36.96c8.037-10.853,21.175-20.587,39.36-21.12
		c13.423-0.393,25.497,5.848,35.999,12.96c12.816,14.451,22.103,28.38,24.48,50.88c2.661,25.176-7,52.098-19.68,65.28
		c-4.554,4.733-12.911,10.835-20.16,13.44c-21.914,7.875-45.012-0.95-56.16-13.92c-3.876-4.51-6.573-10.425-9.12-15.84
		c-4.516-9.603-6.783-21.423-20.159-23.04c-8.078-0.977-17.883,0.276-26.881,0.479c-39.276,0.887-78.118,1.852-120.479,3.36
		c-3.175,0.113-6.966-0.626-10.08,0c-4.62,0.929-6.173,4.742-13.44,4.8C140.325,98.451,136.226,95.205,132.479,90.738z M408,10.578
		c-21.377-16.263-53.436-5.375-65.76,11.52c-9.61,13.173-10.055,32.635-24.48,40.8c5.098,0.343,9.754,1.127,10.08,6.24
		c2.377,0.617-0.457-3.978,1.92-3.36c-0.444,6.326,0.416,11.042,0.48,15.84c0.078,5.856-2.372,13.967,1.92,17.28
		c-0.418-10.749-0.931-23.271,0-36.96c3.239,12.016-2.253,35.049,3.359,46.08c0.662-15.59-1.317-34.312,0.96-48.479
		c0.257,11.762,0.356,19.348,0,30.72c-0.196,6.286-0.926,14.945,0,21.12c0.23,1.534,1.532,3.129,2.4,4.32
		c-0.021-20.574-1.38-42.108,0.479-60.48c0.817,2.953-0.439,7.507,0.48,10.08c2.934-7.787,7.1-14.34,14.399-17.76
		c-7.07-34.476,43.168-46.534,53.761-14.4c0.571-3.451-1.521-6.618,0.96-8.16c-0.604,6.259-0.113,12.036,0,17.28
		c0.063,2.934-1.785,5.93,2.399,6.24c0.014-11.834-1.506-20.788,0.48-34.08c0.112,9.185,0.479,16.355,0.479,24.96
		c0,4.469-1.48,10.663,2.881,12c-0.664-9.638-0.926-24.591,0-32.64c0.838,12.718,0.84,22.962,0.959,34.08
		c1.289,0.631,0.958,2.882,2.881,2.88c-1.321-13.022-1.114-22.618,0-33.12c1.922,11.226-1.639,31.576,3.359,39.36
		c0.192-10.951-1.332-24.51,0-34.56c2.924,28.123-0.214,65.63,1.92,91.2c0.75-1.428,1.777-3.108,1.92-4.8
		c0.688-8.125-0.479-19.225-0.479-30.24c0-18.927-0.907-37.273,0.479-50.4c2.351,27.969-0.616,52.445,1.44,79.68
		c0.882-1.657,1.943-4.475,1.92-5.28c-0.567-19.518-0.613-46.86-0.96-65.28c-0.029-1.533,0.756-3.332,0.48-4.8
		c-0.981-5.231-5.758-10.56-8.641-14.4c-3.534-4.708-7.516-8.959-12-11.52c-0.046,0.754,0.064,1.665-0.96,1.44
		C407.123,11.621,408.196,11.734,408,10.578z M360.959,33.138c2.307-12.397,27.182-17.615,34.08-7.2
		c-9.261-7.119-23.977-5.775-30.24,3.36c-3.614,5.271-5.993,13.705-1.44,20.16c-5.007-15.891,6.256-29.264,21.601-26.88
		c11.619,1.805,18.49,15.237,14.399,26.4c2.169-0.711,4.058-1.703,6.24-2.4c7.585-26.299-31.441-39.655-42.72-20.64
		c5.795-9.567,27.5-10.776,33.12-1.92C385.642,13.821,362.782,20.244,360.959,33.138z M395.04,29.778
		c-11.463-11.117-32.277-3.099-31.681,12.96c0.14,3.749,2.491,5.833,1.921,10.56c-19.643,3.111-23.2,31.171-6.24,39.839
		c2.917,1.491,6.203,0.656,8.16,3.841c-6.684,13.181,2.229,26.639,13.439,27.359c15.857,1.021,23.596-16.891,15.84-29.76
		c10.369-2.414,17.993-10.33,18.24-21.12c0.279-12.2-8.893-17.642-17.76-22.08C400.074,44.926,399.213,34.271,395.04,29.778z
		 M358.559,33.618c0.265-2.097,3.427-6.008,2.4-6.24C360.017,29.007,357.297,31.38,358.559,33.618z M357.599,47.058
		c-1.693-4.59,0.294-7.354-0.479-12C356.45,38.779,354.349,44.831,357.599,47.058z M360,48.018c-1.027-1.213,0.383-4.863-1.44-5.28
		C359.018,44.519,358.49,47.288,360,48.018z M431.04,44.658c-1.151,23.149-0.301,38.316-0.48,60.479
		c3.404-7.773,1.92-19.233,1.92-29.76c0-10.868,0.455-22.231-0.479-31.2c-0.102-0.539-0.533-0.748-0.96-0.96
		C431.04,43.698,431.04,44.178,431.04,44.658z M415.679,63.857c-2.167-1.838-3.282-7.271-6.24-6.72
		c4.465,4.785,7.539,10.899,6.72,18.72c-1.03,9.849-9.015,15.753-15.359,19.68c2.219,0.501,3.743,1.696,6.24,1.92
		c15.299-5.046,19.256-34.824,5.76-43.2c2.305,2.5,5.285,6.87,5.28,10.08c-3.566-6.033-7.14-12.06-14.4-14.4
		C408.633,53.624,414.163,56.734,415.679,63.857z M433.439,95.538c1.953-2.427,2.459-6.744,2.4-11.04
		c-0.147-10.814,0.251-27.129-2.4-34.08C433.679,66.229,434.068,81.016,433.439,95.538z M137.76,56.178
		c-0.083,1.358,0.413,3.293-0.96,3.36c-0.055-0.585-0.144-1.136-0.96-0.96c0.228,2.177,0.001,3.556-1.92,2.4
		c-0.005,1.275,0.181,2.742-0.48,3.36c-0.847-0.419-1.486-1.606-1.92,0c1.359-0.079-0.399,2.959,0.96,2.88
		c0.666-0.295,0.072-1.848,0.96-1.92c1.021,3.458-0.563,9.523,1.44,12c0.317-4.323-0.636-9.916,0.48-13.44
		c1.068,4.692,0.142,11.378,1.44,15.84c1.119-2.871-0.699-11.566,1.44-14.88c0.538,7.057-0.604,10.616,0.96,14.88
		c1.01-6.786-0.73-10.291,0.96-15.84c1.447,2.508-0.632,9.044,1.44,9.6c0.313-2.567-0.63-6.39,0.48-8.16
		c1.31,2.619-0.689,10.743,1.44,13.92c1.72-3.801-1.419-13.094,1.44-15.84c-0.304,1.794-0.756,2.749,0.96,3.36
		c-1.001-4.738,1.854-10.44-1.92-12.48c0.271,1.042,1.146,3.93,0,4.8c-2.385-0.415,0.845-3.632-0.96-4.8
		C141.546,55.165,139.446,55.464,137.76,56.178z M148.32,77.778c0.464-8.868-1.007-14.775,0-22.56
		c-0.614-0.026-0.665-0.615-1.44-0.48C147.466,62.311,145.513,72.424,148.32,77.778z M248.639,60.978
		c6.028-1.491,16.651,0.7,20.641-1.44c-21.162,0.417-38.934-0.647-60,0.48c8.9,1.334,17.393-0.971,25.92,1.44
		c-10.175,0.279-18.774-1.326-30.72,0.96c22.031,0.258,48.075-0.217,66.24,0c19.968,0.238,45.029,4.546,53.76-7.2
		c-8.799,7.521-29.459,3.181-44.64,4.32c1.142,1.388,9.273-0.111,10.08,1.92C275.833,61.261,260.367,61.744,248.639,60.978z
		 M150.24,79.218c0.666-8.303,0.582-14.859-0.96-23.04C149.081,61.005,148.711,73.431,150.24,79.218z M122.88,58.578
		c0,1.28,0,2.56,0,3.84c-0.685-0.187-0.81-0.576-1.44,0c-0.108,2.005,0.78,2.267,0,3.84c1.201-0.06,1.502-0.917,1.92,0.48
		c0.461,5.144-0.882,11.229,0.48,14.4c1.389-3.091-0.44-9.4,0.96-12.48c0.792,0.007,0.269,1.331,0.96,1.44
		c-0.312-2.408,0.629-6.069-0.48-7.68c-0.233,0.567-0.512,1.088-0.96,1.44c-0.937-1.176-0.48-4.034,0.48-4.8
		c-0.1,1.379,0.122,2.438,0.96,2.88c-0.763-1.698,0.848-2.986-0.96-3.84C124.382,58.822,124.081,57.965,122.88,58.578z
		 M152.64,73.458c-0.365-5.93,0.341-8.104-0.96-12.96C151.938,63.777,150.61,69.97,152.64,73.458z M157.439,61.458
		c-0.292,0.027-0.568,0.072-0.48,0.48c14.356,0.519,34.371,1.414,47.04-0.48C186.332,61.807,171.436,60.779,157.439,61.458z
		 M120,62.897c-17.112,1.711-35.087,1.44-55.68,1.44c-22.552,0-34.722,0.576-55.68,0.48c-0.172,4.442,0.31,8.171,0,11.52
		c33.082,0.023,80.251-1.314,111.359-0.96C81.286,79.36,39.483,75.6,8.64,78.738c15.452,0.282,35.88,0.197,57.12,0
		c20.369-0.189,35.492-1.083,54.72-0.96c-0.688-5.798,1.379-13.177-1.44-15.84C119.094,62.523,119.183,63.074,120,62.897z
		 M323.519,65.778c-2.195-1.741-10.146-1.428-15.84-1.44c-20.206-0.044-40.053-0.005-54.239,0c-26.542,0.01-53.034-0.876-74.4,0
		c-5.261,0.216-10.02-0.54-14.4,1.92c46.018-0.629,94.861-0.671,124.32-0.48c11.862,0.077,24.188-1.364,34.56,2.88
		c1.695,3.567,1.198,10.387-1.439,12.48c-13.748,0.863-27.778,0.507-41.28,0.96c-27.54,0.923-65.788,1.229-95.52,2.4
		c-6.969,0.274-14.574,1.797-21.12,0.48c-1.902-0.383-7.13-5.413-7.2-2.88c-0.11,3.985,12.248,4.736,16.32,4.8
		c52.409,0.821,100.659-4.031,149.76-4.32C326.274,79.123,327.389,68.846,323.519,65.778z M347.04,82.098
		c-0.082,0.718,0.171,1.771-0.48,1.92c-0.377-1.862-1.487-2.992-1.439-5.28c0.66-0.021,1.054,0.226,1.439,0.48
		c-0.187-1.253-0.246-2.634-0.96-3.36c-0.055,0.586-0.144,1.137-0.96,0.96c-1.247-2.608,0.797-7.185,0-10.56
		c-1.535,4.069-1.39,8.958-0.96,13.92c-0.685-0.115-0.81-0.791-1.439-0.96c-0.386,1.665,0.715,1.845,0.479,3.36
		c1.553,0.593,0.367-1.553,1.92-0.96c-0.211,2.624,3.239,4.104,1.92,6.24c-0.953,0.244-1.098-2.648-1.92-0.96
		c2.95,5.37,7.225,9.415,12.96,12c1.188-1.373,3.853-1.269,4.8-2.881C354.5,94.158,350.679,88.217,347.04,82.098z M436.799,83.058
		c-0.109-5.402,1.067-11.359-0.48-16.32C436.541,70.917,435.626,79.39,436.799,83.058z M145.919,75.377
		c-0.312-2.567,0.63-6.39-0.479-8.16C144.575,69.068,144.267,73.558,145.919,75.377z M342.24,72.018c0.131-1.717,0.991-3.044,0-4.8
		C341.654,67.944,341.297,71.352,342.24,72.018z M4.8,72.498c0.284-0.996,0.924-1.636,1.92-1.92c0.071-1.19,0.089-2.33-0.96-2.4
		C5.811,69.695,3.64,71.46,4.8,72.498z M130.56,75.857c0.685-1.411,0.878-5.82,0-7.2C130.697,71.699,129.642,73.378,130.56,75.857z
		 M3.36,76.817c0.457-0.701,1.61-3.139,0.48-3.84C3.267,73.518,1.652,77.073,3.36,76.817z M132,76.817
		c1.645,0.487,1.144-3.605,0.48-3.84C132.189,74.127,131.79,75.167,132,76.817z M212.64,75.857
		c16.21-0.207,22.683,0.058,38.879-0.96C242.73,75.252,223.996,73.812,212.64,75.857z M252.959,74.897
		c-0.182,0.466,8.023,1.416,8.64-0.48C258.807,74.665,254.98,73.878,252.959,74.897z M269.28,74.417
		c-1.933,0.308-5.104-0.624-6.24,0.48C264.085,75.349,269.031,76.287,269.28,74.417z M272.16,75.377c1.66,0.39,2.026-0.896,2.88,0
		C275.482,73.633,271.871,74.28,272.16,75.377z M342.24,78.258c-0.396-1.205,0.933-4.133-0.96-3.84
		C341.596,75.7,341.48,77.417,342.24,78.258z M168.959,76.337c15.214-0.687,28.395,0.822,42.72-1.44
		C200.329,76.177,186.123,73.849,168.959,76.337z M145.919,80.658c-0.46-1.46,1.028-4.868-0.96-4.8
		C144.993,77.744,145.192,79.465,145.919,80.658z M181.439,78.258c0.995-0.286,3.153,0.593,3.36-0.48
		C183.97,76.941,181.832,77.246,181.439,78.258z M180.959,77.778c-3.843,0.316-8.955-0.636-12,0.48
		C172.803,77.941,177.915,78.893,180.959,77.778z M304.32,78.258c6.692,0.255,6.535-0.787-0.48-0.48
		c-46.269,0.661-85.632,0.808-133.439,2.88C211.495,80.707,261.32,79.529,304.32,78.258z M328.799,93.137
		c-0.317-4.802,0.637-10.876-0.48-14.879C326.508,82.173,325.192,90.538,328.799,93.137z M103.68,80.658
		c-2.119,0.07-7.062,1.108-8.64,0.48c5.386,2.145,14.766-0.749,20.64-0.96C110.861,79.807,107.433,80.533,103.68,80.658z
		 M251.04,81.138C247.75,80.016,244.039,82.706,251.04,81.138L251.04,81.138z M255.36,81.618c3.542-0.582,5.589,0.488,6.72-0.96
		C259.912,81.05,256.035,79.732,255.36,81.618z M269.28,80.658c-0.995,0.286-3.153-0.593-3.36,0.48
		C267.149,81.574,268.64,81.916,269.28,80.658z M26.88,82.098c2.4,0,4.8,0,7.2,0C33.255,80.05,28.002,81.301,26.88,82.098z
		 M40.8,81.138c-0.994,0.286-3.153-0.593-3.36,0.48C38.315,82.501,40.13,81.872,40.8,81.138z M59.52,81.138c-2.08,0-4.16,0-6.24,0
		c-1.932,0.308-5.104-0.624-6.24,0.48C51.043,81.301,56.315,82.253,59.52,81.138z M170.879,83.058
		c21.444-0.055,50.995,0.141,74.4-1.92C218.727,81.475,196.299,81.145,170.879,83.058z M350.399,99.377
		c0.156,7.663,0.293,14.678,0,21.12c-0.212,4.682-1.327,10.779,2.4,12.96c0.018-10.446-0.933-22.304,0.96-32.16
		c-0.228,5.497,0.918,12.189,0.96,19.2c0.026,4.386-2.873,12.79,1.92,15.36c-1.829-5.894,0.395-11.75,0-17.761
		c-0.348-5.307-3.635-10.727-1.439-17.279c-7.86-3.181-11.781-10.3-15.36-17.76c-0.025,12.682,0.085,22.982,0,35.04
		c1.21,0.871,1.007,3.153,2.4,3.84c-0.569-11.782-0.888-19.01,0-32.64c1.425,6.153,1.278,17.435,0.96,27.36
		c-0.121,3.762-0.58,8.114,2.399,9.6c-0.631-12.264-0.623-20.771,0-31.68c0.617,4.861,1.809,10.03,1.92,15.36
		c0.165,7.838-3.687,16.879,1.92,20.159c-0.272-8.044-1.19-22.707,0.48-32.159C349.946,98.551,350.535,98.602,350.399,99.377z
		 M325.439,88.818c0.805-0.992,0.427-4.886-0.96-5.28C322.93,84.646,323.51,88.405,325.439,88.818z M76.8,84.978
		c11.941,1.55,26.382,0.949,40.8-0.48C103.346,84.853,93.293,85,76.8,84.978z M118.08,85.458c0.907-0.213,2.893,0.653,2.4-0.96
		C119.573,84.71,117.587,83.845,118.08,85.458z M420,123.858c4.693-2.843,2.086-11.287,1.92-16.801
		c-0.237-7.869,0.973-14.143,0.479-22.079c-0.105-0.375-0.401-0.559-0.96-0.48C417.688,94.653,421.599,109.689,420,123.858z
		 M32.64,85.938c15.545,0.736,25.49,0.424,43.68-0.48C62.807,84.825,49.793,85.007,32.64,85.938z M19.2,86.417
		c2.732-0.469,7.438,1.038,8.64-0.96C25.312,86.632,21.082,84.06,19.2,86.417z M29.28,86.417c0.907-0.213,2.893,0.653,2.4-0.96
		C30.773,85.67,28.787,84.805,29.28,86.417z M137.76,93.618c-0.532-1.868-0.237-4.563-1.44-5.76
		C136.73,89.847,135.216,93.761,137.76,93.618z M84.96,88.818c0.909,20.025,1.458,35.603,0,51.359
		c-1.297-14.127-0.653-34.663-0.96-45.6c-0.05-1.768,1.268-5.447-1.44-5.76c-1.988,17.586,1.5,32.898-0.96,46.56
		c-1.427-14.983-0.741-26.107-0.96-39.84c-0.03-1.871,1.253-5.752-1.44-6.72c-1.047,14.715,1.412,27.563-0.48,42.239
		c-2.744-12.555,0.381-31.701-1.92-42.239c-2.035,2.254-0.997,6.546-0.96,10.08c0.082,7.776-0.211,14.209,0,20.159
		c0.121,3.401,2.117,7.922-0.96,10.561c-1.065-10.308,0.32-22.153-0.48-35.521c-0.079-1.322,1.322-5.591-1.92-5.279
		c0.112,7.584,0.345,16.873,0,24.479c-0.172,3.78,1.214,8.359-0.96,10.561c0.405-6.772-1.045-14.396-0.96-21.601
		c0.038-3.206,2.181-13.444-0.96-13.439c-0.4,5.898,0.074,16.458-0.48,23.04c-0.312,3.716,1.479,8.228-0.96,10.079
		c-0.095-8.514-0.352-19.901-0.48-28.8c-0.02-1.408,1.376-3.991-0.96-4.319c-2.414,7.477,1.517,22.288-1.92,28.319
		c0.901-7.181-1.089-14.514-0.96-20.64c0.059-2.781,2.428-6.224-0.48-7.68c-2.785,1.949-0.675,6.299-0.48,10.08
		c0.27,5.223-0.345,11.15-0.96,15.84c-1.629-3.958,0.506-11.7-1.92-15.84c-1.001,3.63,0.735,10.363-1.44,13.92
		c0.194-5.469-1.005-10.988-0.96-16.801c0.015-1.884,2.061-5.908-0.96-7.199c-1.697,4.626,1.271,14.73-1.44,20.16
		c-0.526-6.674,0.419-14.819-1.44-20.16c-2.772,4.604,1.243,13.666-1.44,17.76c-0.374-3.499-0.649-8.768-0.96-12.96
		c-0.099-1.34,1.132-4.252-0.96-4.32c-1.892,4.271,0.465,9.664-1.44,13.44c-1.611-2.064,1.346-12-1.92-13.92
		c-1.652,2.348,1.011,9.011-1.44,10.56c-0.643-3.357,1.472-9.473-1.44-10.56c-2.357,2.71,1.163,7.43-1.92,8.16
		c-0.552-2.328,1.16-6.92-0.96-7.681c-2.437-0.036,0.443,5.243-1.92,5.28c-0.742-1.248,0.791-4.131-0.48-5.76
		c-1.978-0.379-0.902,2.298-2.88,1.92c0.732-2.173-1.842-1.038-2.4-1.92c-1.804,14.568-0.152,32.944,0,53.279
		c0.036,4.847-2.213,10.426,0.96,14.4c0.556-3.445-0.891-7.417,0-9.6c2.549,1.796-1.333,9.239,2.4,9.6
		c0.92-1.268-1.034-6.298,0.48-8.16c1.988,2.745-1.312,7.784,2.4,8.16c1.383-1.472-0.861-4.557,0.48-6.72
		c1.966,1.826-0.695,5.15,1.92,6.72c1.625-0.775-0.941-5.741,1.44-5.76c0.574,1.825-1.37,6.17,1.44,5.76
		c1.269-4.666,0.993-11.517,0.96-16.8c-0.012-1.92-1.635-5.039,0.96-5.761c-0.158,2.633,0,7.085,0,11.521
		c0,3.6-1.409,10.758,1.92,11.04c0.918-4.198-0.988-14.088,0.48-20.16c1.931,5.353-0.431,14.327,1.92,20.16
		c2.436-5.035-0.848-14.8,1.44-19.2c2.368,5.619-1.47,15.386,1.92,19.2c2.424-4.422-1.381-13.822,1.44-17.76
		c2.105,5.357-0.695,14.378,1.44,17.76c2.351-3.7-1.328-13.836,1.92-16.32c-0.37,1.803,0.377,3.345,0.48,5.28
		c0.211,3.983-1.384,9.694,1.44,11.04c0.412-3.443-0.884-9.729,0.96-13.92c2.596,2.744-1.054,11.783,1.92,13.92
		c1.831-4.338-0.99-8.373,1.92-12.48c1.073,5.793-1.716,10.492,1.92,12.48c1.972-11.324-2.002-19.122,0.96-29.28
		c1.052,5.536,0.319,15.997,0.48,23.521c0.026,1.22-0.416,5.97,1.44,5.279c1.117-1.041,0.634-6.059,0.48-9.6
		c-0.24-5.493-1.809-13.345,0.96-16.8c0.351,6.318,0.394,12.207,0.48,17.76c0.045,2.939-0.814,7.117,1.44,8.64
		c1.305-6.971-1.67-17.488,0.96-24.96c1.4,7.138,0.77,13.425,0.48,19.2c-0.096,1.918-0.81,5.385,1.44,6.24
		c2.075-4.305-0.801-13.265,0.96-20.64c2.275,4.216,1.234,12.846,0.96,19.68c1.866,0.979,4.269,1.003,6.24,0
		c-0.825-4.331-1.14-9.4,0-13.44c2.099,4.646-1.538,11.417,2.4,13.92c1.197-19.163-2.074-47.304,0.48-66.72
		c0.409,16.207,0.96,34.11,0.96,55.2c0,3.806-1.743,11.168,2.4,11.52c-0.053-21.198-0.296-46.353-0.48-67.68
		C88.906,88.902,88.097,88.652,84.96,88.818z M92.64,88.337c0,0.48,0,0.96,0,1.44c-0.562,15.515,0.553,39.442,0.48,57.6
		c-0.012,3.011-1.578,7.544,1.44,8.64c1.496-18.168,0-39.086,0-60c0-1.702,2.143-6.855-0.96-7.68
		C93.28,88.337,92.96,88.337,92.64,88.337z M96.48,89.778c-0.018,18.444-0.589,42.033,0,61.439c0.037,1.225-0.888,4.758,1.44,4.8
		c1.933-1.289,1.129-5.486,0.96-8.159c-0.998-15.732,0.565-41.951-1.44-59.521c-0.48,0-0.96,0-1.44,0
		C96.075,88.903,95.917,89.7,96.48,89.778z M99.36,89.778c0.203,17.578,0.699,39.389,0.48,58.08c-0.043,3.71-0.321,6.28,1.44,8.159
		c0.9-22.501,0.152-40.887,0-58.56c-0.025-2.974,1.096-6.801-0.96-9.12c-0.32,0-0.64,0-0.96,0
		C99.36,88.818,99.36,89.297,99.36,89.778z M113.76,88.337c-2.567,0.312-6.39-0.63-8.16,0.48
		C108.167,88.504,111.99,89.448,113.76,88.337z M60.48,97.458c-0.113-4.062,0.547-4.502,0.48-8.16
		c-0.614-0.026-0.665-0.615-1.44-0.479C58.616,91.154,59.008,95.938,60.48,97.458z M9.12,90.257c2.391-0.466,5.197,1.78,5.76-0.96
		C12.053,89.774,10.306,88.586,9.12,90.257z M15.84,89.778c1.73,0.768,9.789,0.919,11.52-0.48
		C23.636,89.574,18.78,88.717,15.84,89.778z M124.32,93.137c-0.648-1.863,0.77-3.011-0.96-3.359
		C123.709,90.868,122.495,93.522,124.32,93.137z M144.959,96.978c2.95,0.172,0.61-6.6,0.48-6.24
		C145.806,93.343,144.68,94.458,144.959,96.978z M139.68,95.057c-0.018-1.742,0.269-3.789-0.96-4.319
		C139.084,93.115,137.045,94.359,139.68,95.057z M150.24,96.017c0.722-1.633,1.163-3.38,0-4.8
		C150.307,92.597,148.906,94.96,150.24,96.017z M415.679,95.057c-1.628,9.349,2.81,23.789,0.479,33.12
		c3.817-0.688,3.102-3.163,2.881-7.199c-0.52-9.49,0.097-25.426-1.44-29.761C417.503,92.542,415.937,93.579,415.679,95.057z
		 M144,96.498c-0.256-1.664,0.713-4.553-0.96-4.8C143.761,93.948,141.267,96.43,144,96.498z M148.32,96.017
		c0.52-1.43,0.632-2.849-0.48-4.319C147.636,93.347,147.356,94.589,148.32,96.017z M142.08,95.538
		c-1.375-0.065,0.415-3.295-0.96-3.36C140.327,93.16,140.478,97.247,142.08,95.538z M412.319,96.978
		c1.17,13.688,0.161,22.184,0.96,35.039c4.305-5.245,0.874-13.887,0.96-20.64c0.078-6.084,1.142-11.184,0.961-15.84
		c-0.106-0.374-0.402-0.558-0.961-0.48C413.956,96.054,413.316,96.694,412.319,96.978z M388.319,127.217
		c3.021,2.118,8.226-4.152,10.561-4.319c-12.42,14.87-40.303,5.301-41.28-14.4c1.532,33.763,55.352,28.205,48.96-7.68
		c-2.404-0.956-4.506-2.215-7.2-2.88c12.322,29.151-34.347,38.84-36.96,10.079c0.184,12.367,10.451,20.794,23.04,19.2
		c5.112-0.646,8.377-4.425,12-5.76C395.389,124.368,392.395,126.333,388.319,127.217z M408.959,99.377
		c1.013,9.688-0.268,21.601,0.479,35.04c4.681-3.803,1.515-11.754,1.44-19.2c-0.055-5.404,1.154-10.961,0.479-16.319
		c-0.105-0.374-0.401-0.559-0.96-0.48C410.203,99.021,409.78,99.399,408.959,99.377z M362.879,107.538
		c-0.314-1.782,0.463-4.94,0-5.28C362.311,103.359,360.899,106.845,362.879,107.538z M361.439,114.738
		c-0.437-1.964-0.474-4.326-1.439-5.76C360.168,111.208,360.207,113.571,361.439,114.738z M370.559,125.297
		c-3.67-2.41-6.363-5.797-8.64-9.6C363.208,120.171,367.147,124.546,370.559,125.297z M406.559,136.818
		c3.352-3.623,0.611-12.487,1.44-19.2c-0.106-0.374-0.402-0.559-0.96-0.48C404.981,123.369,405.841,129.89,406.559,136.818z
		 M360.479,138.257c-2.597-7.245,2.449-14.989-3.359-18.72C360.129,124.292,354.165,136.04,360.479,138.257z M383.519,133.937
		c0.675,3.006-1.515,8.876,1.44,9.601c3.785-1.583-0.945-6.955,1.92-9.12c1.02,2.021,0.232,5.847,0.479,8.64c0.801,0,1.601,0,2.4,0
		c1.706-3.202-1.869-7.397,1.44-9.6c0.499,3.147-0.197,5.218,0,9.12c1.468,0.348,1.411-0.828,2.88-0.48
		c0.096-3.411-1.574-7.119,0.479-10.08c1.418,3.043,0.735,5.667,0.48,9.601c1.156,0.196,1.043-0.877,2.399-0.48
		c0.515-3.325-1.105-8.785,0.96-10.56c0.437,2.347,0.462,5.695,0.48,9.6c1.405,0.125,1.475-1.085,2.88-0.96
		c-0.03-3.941-2.189-11.832,1.44-12.479c-0.547,3.357-0.359,7.966-0.48,11.52c4.002-0.531,1.411-11.243,1.439-15.359
		C399.659,128.958,393.203,133.061,383.519,133.937z M363.839,139.698c-1.36-5.459,2.175-13.073-2.88-14.4
		C363.19,130.695,358.206,138.621,363.839,139.698z M378.239,128.177c-1.931-0.435-4.017-1.955-4.8-0.96
		C374.686,127.595,377.335,129.049,378.239,128.177z M366.719,141.137c1.391-2.608-0.416-8.416,0.96-11.04
		c-1.285-0.314-1.825-1.375-2.88-1.92C365.973,131.29,362.578,139.813,366.719,141.137z M371.519,142.097
		c-0.05-4.061-0.646-6.301,0-10.08c-0.98-0.459-1.899-0.98-2.88-1.439C369.448,134.569,366.442,142.375,371.519,142.097z
		 M372.479,142.578c1.687,0.344,3.67,0.451,6.24,0.96c0.58-2.957-0.098-6.905,0-9.601c-1.113,0.153-1.843-0.076-2.4-0.479
		c0.424,2.308,1.058,6.929,0,9.12c-1.273-1.704-1.216-6.113-0.479-9.12c-0.983-0.175-3.146-1.604-3.84-0.48
		C373.112,135.225,372.165,139.532,372.479,142.578z M381.12,143.538c0.319,0,0.64,0,0.96,0c1.112-2.247,0.165-6.555,0.479-9.601
		c-0.96,0-1.92,0-2.88,0C381.201,136.096,378.766,142.21,381.12,143.538z"/>
	<path fill-rule="evenodd" clip-rule="evenodd" fill="#FFFFFF" d="M362.399,96.017c-0.947,1.612-3.612,1.508-4.8,2.881
		c-5.735-2.585-10.01-6.63-12.96-12c0.822-1.688,0.967,1.204,1.92,0.96c1.319-2.137-2.131-3.617-1.92-6.24
		c-1.553-0.593-0.367,1.553-1.92,0.96c0.235-1.515-0.865-1.695-0.479-3.36c0.63,0.169,0.755,0.845,1.439,0.96
		c-0.43-4.962-0.575-9.851,0.96-13.92c0.797,3.375-1.247,7.952,0,10.56c0.816,0.177,0.905-0.374,0.96-0.96
		c0.714,0.727,0.773,2.107,0.96,3.36c-0.386-0.254-0.779-0.501-1.439-0.48c-0.048,2.288,1.062,3.417,1.439,5.28
		c0.651-0.148,0.398-1.202,0.48-1.92C350.679,88.217,354.5,94.158,362.399,96.017z M348,85.938c0.205,1.714,1.205,2.634,2.399,3.359
		C350.208,87.568,349.618,86.24,348,85.938z"/>
	<path fill-rule="evenodd" clip-rule="evenodd" fill="#FFFFFF" d="M349.919,97.938c-1.671,9.452-0.753,24.115-0.48,32.159
		c-5.606-3.28-1.755-12.321-1.92-20.159c-0.111-5.33-1.303-10.499-1.92-15.36c-0.623,10.908-0.631,19.416,0,31.68
		c-2.979-1.485-2.521-5.838-2.399-9.6c0.318-9.926,0.465-21.207-0.96-27.36c-0.888,13.63-0.569,20.857,0,32.64
		c-1.394-0.687-1.19-2.969-2.4-3.84c0.085-12.058-0.025-22.357,0-35.04c3.579,7.46,7.5,14.58,15.36,17.76
		c-2.195,6.553,1.092,11.973,1.439,17.279c0.395,6.011-1.829,11.867,0,17.761c-4.793-2.57-1.894-10.975-1.92-15.36
		c-0.042-7.011-1.188-13.703-0.96-19.2c-1.893,9.856-0.942,21.714-0.96,32.16c-3.728-2.181-2.612-8.278-2.4-12.96
		c0.293-6.442,0.156-13.457,0-21.12C350.535,98.602,349.946,98.551,349.919,97.938z"/>
	<path fill-rule="evenodd" clip-rule="evenodd" fill="#FFFFFF" d="M397.439,121.458c-3.623,1.335-6.888,5.113-12,5.76
		c-12.589,1.594-22.856-6.833-23.04-19.2c2.613,28.761,49.282,19.072,36.96-10.079c2.694,0.665,4.796,1.924,7.2,2.88
		c6.392,35.885-47.428,41.442-48.96,7.68c0.978,19.701,28.86,29.271,41.28,14.4c-2.335,0.167-7.539,6.438-10.561,4.319
		C392.395,126.333,395.389,124.368,397.439,121.458z M399.839,117.618c1.672-0.108,3.023-3.028,1.92-4.32
		C400.856,114.474,400.131,115.83,399.839,117.618z M402.239,119.057c0.439-1.657,2.952-3.746,1.44-5.76
		C403.814,115.529,400.987,117.303,402.239,119.057z"/>
	<path fill-rule="evenodd" clip-rule="evenodd" fill="#FFFFFF" d="M362.879,102.257c0.463,0.34-0.314,3.498,0,5.28
		C360.899,106.845,362.311,103.359,362.879,102.257z"/>
	<path fill-rule="evenodd" clip-rule="evenodd" fill="#FFFFFF" d="M361.919,115.698c2.276,3.803,4.97,7.189,8.64,9.6
		C367.147,124.546,363.208,120.171,361.919,115.698z"/>
	<path fill-rule="evenodd" clip-rule="evenodd" fill="#FFFFFF" d="M373.439,127.217c0.783-0.995,2.869,0.525,4.8,0.96
		C377.335,129.049,374.686,127.595,373.439,127.217z"/>
	<path fill-rule="evenodd" clip-rule="evenodd" fill="#FFFFFF" d="M407.519,12.978c1.024,0.225,0.914-0.686,0.96-1.44
		c4.484,2.561,8.466,6.812,12,11.52c2.883,3.84,7.659,9.169,8.641,14.4c0.275,1.469-0.51,3.268-0.48,4.8
		c0.347,18.419,0.393,45.762,0.96,65.28c0.023,0.806-1.038,3.623-1.92,5.28c-2.057-27.235,0.91-51.711-1.44-79.68
		c-1.387,13.127-0.479,31.473-0.479,50.4c0,11.016,1.167,22.115,0.479,30.24c-0.143,1.691-1.17,3.372-1.92,4.8
		c-2.134-25.57,1.004-63.077-1.92-91.2c-1.332,10.05,0.192,23.609,0,34.56c-4.998-7.784-1.438-28.134-3.359-39.36
		c-1.114,10.502-1.321,20.098,0,33.12c-1.923,0.002-1.592-2.249-2.881-2.88c-0.119-11.118-0.121-21.362-0.959-34.08
		c-0.926,8.049-0.664,23.002,0,32.64c-4.361-1.337-2.881-7.531-2.881-12c0-8.604-0.367-15.775-0.479-24.96
		c-1.986,13.292-0.467,22.246-0.48,34.08c-4.185-0.31-2.336-3.306-2.399-6.24c-0.113-5.245-0.604-11.021,0-17.28
		c-2.481,1.542-0.389,4.709-0.96,8.16c-10.593-32.134-60.831-20.076-53.761,14.4c-7.3,3.42-11.466,9.973-14.399,17.76
		c-0.92-2.573,0.337-7.127-0.48-10.08c-1.859,18.372-0.5,39.906-0.479,60.48c-0.868-1.191-2.17-2.786-2.4-4.32
		c-0.926-6.175-0.196-14.834,0-21.12c0.356-11.372,0.257-18.958,0-30.72c-2.277,14.168-0.298,32.89-0.96,48.479
		c-5.612-11.03-0.12-34.064-3.359-46.08c-0.931,13.689-0.418,26.211,0,36.96c-4.292-3.313-1.842-11.424-1.92-17.28
		c-0.064-4.798-0.925-9.514-0.48-15.84c-2.377-0.618,0.457,3.977-1.92,3.36c-0.326-5.113-4.982-5.897-10.08-6.24
		c14.426-8.165,14.87-27.626,24.48-40.8C354.564,5.203,386.623-5.686,408,10.578C408.196,11.734,407.123,11.621,407.519,12.978z
		 M383.519,7.218c-0.247-1.353,0.857-4.057-1.439-3.36C382.495,5.042,381.957,7.181,383.519,7.218z M385.439,7.698
		c2.038-0.104,1.379-2.505,0.48-3.36C385.258,4.957,385.444,6.423,385.439,7.698z M389.759,8.658c1.065-0.199,0.461-2.632-0.48-2.4
		C388.909,6.586,388.03,9.117,389.759,8.658z M399.839,11.538c0.907,0.108,1.059-0.541,1.92-0.48c0.13-1.89-0.185-3.335-1.44-3.84
		C399.207,8.567,400.94,9.978,399.839,11.538z M398.399,11.058c-0.007-1.272,0.267-2.826-0.96-2.88
		C397.761,9.969,396.109,10.994,398.399,11.058z M383.04,11.538c0.393-0.348,1.287-3.322-0.48-2.88
		C382.981,10.355,381.327,11.13,383.04,11.538z M386.399,12.018c0.553-0.567,0.544-1.697,0.48-2.88c-0.48,0-0.96,0-1.44,0
		C385.34,10.517,385.561,11.576,386.399,12.018z M405.12,24.498c-0.52-4.921,1.11-11.991-0.961-15.36
		C404.391,12.576,403.125,20.342,405.12,24.498z M360.959,13.938c-0.432-1.329,0.986-4.506-0.96-4.32
		C360.43,10.946,359.013,14.124,360.959,13.938z M356.639,14.417c1.969-0.334,1.38-3.253,0-3.84
		C356.639,11.858,356.639,13.138,356.639,14.417z M363.839,13.458c-0.244-1.196,0.016-2.896-1.44-2.88
		C362.379,12.037,362.12,13.737,363.839,13.458z M354.239,19.218c-0.221-1.392,1.311-4.237-0.959-4.32
		C353.486,16.451,352.648,19.049,354.239,19.218z M400.319,20.658c1.547-0.933,2.814-4.577,0-4.8
		C400.319,17.458,400.319,19.058,400.319,20.658z M360,18.738c2.024,0.376,1.639-2.575,0-2.4
		C360.284,17.869,359.098,17.822,360,18.738z M357.599,22.578c-0.502-1.737,1.089-5.569-0.96-5.76
		C357.142,18.555,355.55,22.387,357.599,22.578z M350.879,22.098c0.393-0.348,1.287-3.322-0.48-2.88
		C350.191,20.285,349.296,21.82,350.879,22.098z M353.28,24.498c1.95,0.155,1.467-3.498,0-3.84
		C353.28,21.938,353.28,23.218,353.28,24.498z M343.2,44.658c0.37-1.273,0.996-3.542-0.96-4.32
		C342.446,41.891,341.608,44.489,343.2,44.658z M345.599,44.658c0.32,0,0.64,0,0.96,0c0-1.28,0-2.56,0-3.84c-0.32,0-0.64,0-0.96,0
		C345.599,42.098,345.599,43.377,345.599,44.658z M339.359,51.377c-0.009-1.793,1.54-6.047-0.96-6.72
		C338.792,46.826,337.474,50.703,339.359,51.377z M343.679,48.498c0.07-1.19,0.09-2.329-0.96-2.4
		C342.41,47.267,341.75,48.567,343.679,48.498z M336,52.337c0.119-1.288,1.433-4.35-0.48-5.28
		C335.792,49.249,334.125,51.24,336,52.337z M343.2,53.298c1.102-0.377,0.467-2.972-0.96-2.4
		C342.452,51.805,341.586,53.791,343.2,53.298z M332.16,58.578c0.437-0.677,1.364-4.918-0.48-4.8
		C331.98,55.237,331.065,57.912,332.16,58.578z M336,59.058c0.408-0.401,1.314-3.751-0.48-3.36
		C335.037,56.974,335.018,58.142,336,59.058z"/>
	<path fill-rule="evenodd" clip-rule="evenodd" fill="#FFFFFF" d="M143.04,54.258c1.805,1.167-1.425,4.385,0.96,4.8
		c1.146-0.87,0.271-3.758,0-4.8c3.774,2.04,0.918,7.742,1.92,12.48c-1.716-0.611-1.264-1.566-0.96-3.36
		c-2.859,2.746,0.28,12.039-1.44,15.84c-2.129-3.177-0.13-11.301-1.44-13.92c-1.11,1.77-0.167,5.592-0.48,8.16
		c-2.072-0.556,0.007-7.092-1.44-9.6c-1.69,5.55,0.05,9.055-0.96,15.84c-1.563-4.264-0.422-7.823-0.96-14.88
		c-2.139,3.313-0.321,12.009-1.44,14.88c-1.298-4.462-0.372-11.148-1.44-15.84c-1.116,3.524-0.163,9.117-0.48,13.44
		c-2.003-2.477-0.418-8.541-1.44-12c-0.888,0.072-0.295,1.625-0.96,1.92c-1.359,0.079,0.399-2.959-0.96-2.88
		c0.434-1.606,1.074-0.419,1.92,0c0.661-0.618,0.475-2.085,0.48-3.36c1.921,1.156,2.148-0.223,1.92-2.4
		c0.816-0.176,0.905,0.375,0.96,0.96c1.373-0.067,0.877-2.002,0.96-3.36C139.446,55.464,141.546,55.165,143.04,54.258z
		 M142.08,58.098c0-0.64,0-1.28,0-1.92C140.231,55.799,140.231,58.476,142.08,58.098z"/>
	<path fill-rule="evenodd" clip-rule="evenodd" fill="#FFFFFF" d="M289.919,61.458c-0.807-2.031-8.938-0.532-10.08-1.92
		c15.181-1.139,35.841,3.201,44.64-4.32c-8.73,11.746-33.792,7.438-53.76,7.2c-18.165-0.217-44.209,0.258-66.24,0
		c11.946-2.286,20.545-0.681,30.72-0.96c-8.527-2.411-17.02-0.106-25.92-1.44c21.066-1.127,38.838-0.063,60-0.48
		c-3.989,2.14-14.612-0.051-20.641,1.44C260.367,61.744,275.833,61.261,289.919,61.458z M301.919,60.978
		c-2.656-0.261-8.171,0.156-10.56-0.48C293.847,62.138,300.239,62.457,301.919,60.978z"/>
	<path fill-rule="evenodd" clip-rule="evenodd" fill="#FFFFFF" d="M119.04,61.938c2.82,2.663,0.752,10.042,1.44,15.84
		c-19.229-0.124-34.352,0.771-54.72,0.96c-21.24,0.197-41.667,0.282-57.12,0C39.483,75.6,81.286,79.36,120,75.377
		c-31.108-0.354-78.278,0.983-111.359,0.96c0.31-3.349-0.172-7.078,0-11.52c20.958,0.095,33.127-0.48,55.68-0.48
		c20.593,0,38.567,0.271,55.68-1.44C119.183,63.074,119.094,62.523,119.04,61.938z M11.04,74.417
		c38.222-0.38,69.627-0.503,106.08-2.4C86.012,72.491,41.879,71.84,11.04,74.417z"/>
	<path fill-rule="evenodd" clip-rule="evenodd" fill="#FFFFFF" d="M404.159,122.898c-0.028,4.116,2.562,14.828-1.439,15.359
		c0.121-3.554-0.066-8.162,0.48-11.52c-3.63,0.647-1.471,8.538-1.44,12.479c-1.405-0.125-1.475,1.085-2.88,0.96
		c-0.019-3.904-0.044-7.253-0.48-9.6c-2.065,1.774-0.445,7.234-0.96,10.56c-1.356-0.396-1.243,0.677-2.399,0.48
		c0.255-3.934,0.938-6.558-0.48-9.601c-2.054,2.961-0.384,6.669-0.479,10.08c-1.469-0.348-1.412,0.828-2.88,0.48
		c-0.197-3.902,0.499-5.973,0-9.12c-3.31,2.202,0.266,6.397-1.44,9.6c-0.8,0-1.6,0-2.4,0c-0.247-2.793,0.54-6.619-0.479-8.64
		c-2.865,2.165,1.865,7.537-1.92,9.12c-2.955-0.725-0.766-6.595-1.44-9.601C393.203,133.061,399.659,128.958,404.159,122.898z"/>
	<path fill-rule="evenodd" clip-rule="evenodd" fill="#FFFFFF" d="M91.2,88.337c0.184,21.327,0.427,46.481,0.48,67.68
		c-4.143-0.352-2.4-7.714-2.4-11.52c0-21.09-0.551-38.993-0.96-55.2c-2.554,19.416,0.717,47.557-0.48,66.72
		c-3.938-2.503-0.301-9.273-2.4-13.92c-1.14,4.04-0.825,9.109,0,13.44c-1.971,1.003-4.375,0.979-6.24,0
		c0.274-6.834,1.315-15.464-0.96-19.68c-1.761,7.375,1.115,16.335-0.96,20.64c-2.25-0.855-1.536-4.322-1.44-6.24
		c0.29-5.775,0.92-12.062-0.48-19.2c-2.63,7.472,0.345,17.989-0.96,24.96c-2.254-1.522-1.395-5.7-1.44-8.64
		c-0.086-5.553-0.129-11.441-0.48-17.76c-2.769,3.455-1.2,11.307-0.96,16.8c0.154,3.541,0.637,8.559-0.48,9.6
		c-1.856,0.69-1.414-4.06-1.44-5.279c-0.161-7.523,0.572-17.984-0.48-23.521c-2.962,10.158,1.012,17.956-0.96,29.28
		c-3.636-1.988-0.847-6.688-1.92-12.48c-2.91,4.107-0.089,8.143-1.92,12.48c-2.974-2.137,0.676-11.176-1.92-13.92
		c-1.844,4.19-0.548,10.477-0.96,13.92c-2.824-1.346-1.229-7.057-1.44-11.04c-0.103-1.936-0.85-3.478-0.48-5.28
		c-3.248,2.484,0.431,12.62-1.92,16.32c-2.135-3.382,0.665-12.402-1.44-17.76c-2.821,3.938,0.984,13.338-1.44,17.76
		c-3.39-3.814,0.448-13.581-1.92-19.2c-2.288,4.4,0.996,14.165-1.44,19.2c-2.351-5.833,0.011-14.808-1.92-20.16
		c-1.468,6.072,0.438,15.962-0.48,20.16c-3.329-0.282-1.92-7.44-1.92-11.04c0-4.436-0.158-8.888,0-11.521
		c-2.595,0.722-0.972,3.841-0.96,5.761c0.033,5.283,0.308,12.134-0.96,16.8c-2.81,0.41-0.866-3.935-1.44-5.76
		c-2.381,0.019,0.185,4.984-1.44,5.76c-2.615-1.569,0.046-4.894-1.92-6.72c-1.341,2.163,0.903,5.248-0.48,6.72
		c-3.712-0.376-0.412-5.415-2.4-8.16c-1.514,1.862,0.44,6.893-0.48,8.16c-3.733-0.36,0.149-7.804-2.4-9.6
		c-0.891,2.183,0.556,6.154,0,9.6c-3.173-3.975-0.924-9.554-0.96-14.4c-0.152-20.335-1.804-38.711,0-53.279
		c0.558,0.882,3.132-0.253,2.4,1.92c1.978,0.378,0.902-2.299,2.88-1.92c1.271,1.629-0.262,4.512,0.48,5.76
		c2.363-0.037-0.517-5.316,1.92-5.28c2.12,0.761,0.408,5.353,0.96,7.681c3.083-0.73-0.437-5.45,1.92-8.16
		c2.913,1.087,0.797,7.202,1.44,10.56c2.451-1.549-0.212-8.212,1.44-10.56c3.266,1.92,0.309,11.855,1.92,13.92
		c1.905-3.776-0.452-9.169,1.44-13.44c2.092,0.068,0.861,2.98,0.96,4.32c0.311,4.192,0.586,9.461,0.96,12.96
		c2.683-4.094-1.332-13.156,1.44-17.76c1.859,5.341,0.914,13.486,1.44,20.16c2.711-5.43-0.257-15.534,1.44-20.16
		c3.021,1.291,0.975,5.315,0.96,7.199c-0.045,5.812,1.154,11.332,0.96,16.801c2.175-3.557,0.438-10.29,1.44-13.92
		c2.426,4.14,0.291,11.882,1.92,15.84c0.615-4.689,1.229-10.617,0.96-15.84c-0.195-3.781-2.305-8.131,0.48-10.08
		c2.908,1.456,0.539,4.898,0.48,7.68c-0.129,6.126,1.861,13.459,0.96,20.64c3.437-6.031-0.494-20.843,1.92-28.319
		c2.336,0.328,0.94,2.911,0.96,4.319c0.128,8.898,0.385,20.286,0.48,28.8c2.439-1.852,0.647-6.363,0.96-10.079
		c0.554-6.582,0.08-17.142,0.48-23.04c3.141-0.005,0.998,10.233,0.96,13.439c-0.085,7.204,1.365,14.828,0.96,21.601
		c2.174-2.201,0.788-6.78,0.96-10.561c0.345-7.606,0.112-16.896,0-24.479c3.242-0.312,1.841,3.957,1.92,5.279
		c0.8,13.367-0.585,25.213,0.48,35.521c3.077-2.639,1.081-7.159,0.96-10.561c-0.211-5.95,0.082-12.383,0-20.159
		c-0.037-3.534-1.075-7.826,0.96-10.08c2.301,10.538-0.824,29.685,1.92,42.239c1.892-14.676-0.567-27.524,0.48-42.239
		c2.693,0.968,1.41,4.849,1.44,6.72c0.219,13.732-0.467,24.856,0.96,39.84c2.46-13.661-1.027-28.974,0.96-46.56
		c2.708,0.312,1.39,3.992,1.44,5.76c0.307,10.937-0.337,31.473,0.96,45.6c1.458-15.757,0.909-31.334,0-51.359
		C88.097,88.652,88.906,88.902,91.2,88.337z M39.84,114.738c0.393-0.349,1.288-3.322-0.48-2.88
		C39.636,112.702,38.78,114.677,39.84,114.738z M42.24,116.177c1.515,0.618,1.515-3.978,0-3.359
		C42.24,113.938,42.24,115.057,42.24,116.177z M45.6,120.017c1.698-0.077,1.353-5.616,0-5.76
		C45.6,116.177,45.6,118.097,45.6,120.017z M49.44,126.738c0.527-2.864,1.343-9.913-0.48-12
		C47.996,118.847,48.773,122.442,49.44,126.738z M51.84,127.698c2.146-0.734,1.2-9.477,0-11.521
		C51.84,120.017,51.84,123.858,51.84,127.698z M55.2,132.017c2.632-4.312,0.574-9.04,0.96-15.359c-0.48,0-0.96,0-1.44,0
		C55.745,120.912,54.949,126.989,55.2,132.017z M59.52,134.898c-0.452-5.977,0.825-11.967-1.44-15.841
		C58.85,124.047,56.427,132.23,59.52,134.898z M62.88,138.738c-0.58-5.181,1.197-12.718-0.96-16.32
		C61.667,126.564,59.985,136.153,62.88,138.738z M66.24,139.698c-0.798-4.322,1.694-11.935-1.44-13.92
		C65.598,130.1,63.106,137.711,66.24,139.698z M36.48,138.738c2.124,0.053,1.41-4.286,0-4.801
		C36.48,135.538,36.48,137.137,36.48,138.738z M39.84,141.137c0.61-0.961,1.123-5.031-0.48-5.279
		C38.847,136.72,39.217,139.909,39.84,141.137z M43.2,145.458c0.751-2.331,0.99-7.927-0.48-9.6
		C42.777,137.38,42.264,143.25,43.2,145.458z M82.08,155.057c0.358-4.354,1.426-11.592-0.48-15.84
		C80.426,144.966,80.457,151.498,82.08,155.057z"/>
</g>
</svg>
